<?xml version="1.0" standalone="no"?>
<!DOCTYPE svg PUBLIC "-//W3C//DTD SVG 20010904//EN"
 "http://www.w3.org/TR/2001/REC-SVG-20010904/DTD/svg10.dtd">
<svg version="1.0" xmlns="http://www.w3.org/2000/svg"
 width="400.000000pt" height="253.000000pt" viewBox="0 0 400.000000 253.000000"
 preserveAspectRatio="xMidYMid meet">
<metadata>
Created by potrace 1.16, written by Peter Selinger 2001-2019
</metadata>
<g transform="translate(0.000000,253.000000) scale(0.100000,-0.100000)"
fill="#000000" stroke="none">
<path d="M408 2522 c-28 -12 -78 -61 -78 -77 0 -20 -21 -57 -41 -72 -9 -7 -26
-35 -38 -62 -11 -27 -26 -53 -32 -57 -17 -10 -76 -142 -90 -199 -6 -28 -17
-61 -24 -75 -21 -42 -25 -78 -31 -305 -3 -121 -7 -247 -9 -280 -7 -133 -7
-204 0 -295 18 -252 12 -327 -34 -418 -25 -49 -31 -112 -16 -167 16 -63 71
-182 94 -206 9 -9 38 -40 65 -69 27 -29 64 -59 82 -66 19 -8 34 -18 34 -23 0
-10 85 -71 99 -71 5 0 31 -7 59 -16 46 -15 51 -15 76 1 27 18 35 52 14 60 -7
3 -29 6 -48 8 -19 2 -62 20 -95 41 -33 20 -63 36 -67 36 -12 0 -103 94 -138
144 -78 109 -94 153 -87 239 3 40 15 92 26 117 11 25 21 55 21 68 0 12 4 22 8
22 16 0 100 -96 127 -145 23 -42 27 -61 27 -120 -1 -38 1 -77 4 -87 6 -22 31
-30 53 -18 29 15 37 149 14 215 -24 67 -58 120 -94 146 -16 11 -36 33 -44 49
-8 16 -28 43 -45 61 -16 19 -30 39 -30 46 0 6 -7 64 -15 128 -15 111 -15 200
1 435 3 47 5 103 4 125 -1 83 19 308 29 318 6 6 11 21 11 33 0 30 101 257 119
269 13 7 41 64 41 82 0 7 4 13 9 13 5 0 24 22 42 50 19 27 37 50 41 50 3 0 26
-15 51 -34 24 -19 55 -40 68 -46 12 -7 28 -17 33 -21 6 -5 25 -20 42 -34 18
-14 36 -25 42 -25 5 0 15 -7 22 -15 7 -8 19 -15 26 -15 8 0 22 -8 32 -17 32
-31 112 -102 130 -115 23 -17 152 -164 152 -173 0 -4 20 -37 45 -74 25 -37 45
-70 45 -75 0 -4 17 -44 38 -89 21 -45 44 -102 51 -127 7 -25 21 -63 31 -85 56
-125 80 -188 80 -208 0 -13 7 -32 15 -43 8 -10 15 -29 15 -41 0 -12 4 -24 9
-27 5 -3 12 -34 16 -68 4 -35 13 -73 21 -85 8 -12 14 -32 14 -43 0 -37 28 -77
81 -115 51 -36 52 -37 123 -30 79 8 151 21 181 34 81 35 265 46 307 19 21 -14
60 -23 133 -32 17 -2 62 -9 102 -15 78 -13 142 -3 177 27 32 28 76 104 76 132
0 15 13 54 29 87 17 33 42 96 56 139 15 44 33 95 42 114 8 19 21 50 29 68 8
18 14 38 14 46 0 7 14 40 30 74 17 34 30 65 30 69 0 10 70 144 90 173 10 14
26 48 35 76 10 31 31 65 53 87 20 19 69 67 108 106 50 49 79 71 96 71 13 0 35
11 47 24 12 13 41 31 64 41 23 9 53 23 67 31 14 7 39 21 55 29 17 9 57 36 90
60 33 25 77 54 97 65 l37 20 19 -43 c26 -56 63 -240 66 -332 1 -27 5 -61 9
-75 38 -129 57 -212 57 -248 0 -15 8 -47 17 -72 8 -25 15 -60 14 -79 -1 -18 4
-43 11 -55 18 -29 14 -324 -6 -396 -19 -74 -30 -439 -15 -510 6 -25 15 -69 22
-99 l11 -54 -41 -37 c-22 -21 -50 -54 -62 -73 -24 -39 -88 -99 -218 -202 -41
-33 -49 -59 -29 -90 25 -38 55 -31 121 29 87 79 100 90 121 102 10 6 22 25 26
42 5 18 13 32 19 32 5 0 40 29 78 65 84 81 101 121 81 198 -43 170 -45 389 -5
636 9 57 14 106 11 108 -3 3 -1 14 4 24 6 11 6 49 -1 106 -6 48 -13 114 -14
146 -2 32 -8 64 -13 70 -5 7 -13 35 -17 63 -3 28 -13 63 -20 78 -8 15 -12 33
-9 40 3 7 -2 33 -10 57 -9 24 -16 58 -16 74 0 17 -5 47 -11 67 -5 21 -14 75
-18 120 -9 81 -53 257 -83 328 -39 93 -135 91 -263 -4 -114 -85 -148 -106
-237 -150 -54 -27 -103 -55 -109 -63 -7 -8 -31 -23 -54 -33 -42 -19 -185 -166
-185 -189 0 -7 -12 -23 -26 -36 -40 -37 -168 -291 -194 -385 -6 -25 -20 -59
-31 -76 -10 -17 -19 -37 -19 -44 0 -6 -6 -26 -14 -43 -43 -99 -116 -292 -116
-308 0 -11 -11 -41 -24 -68 -20 -39 -32 -50 -64 -59 -50 -15 -145 -15 -159 -1
-15 15 -234 58 -297 59 -27 0 -67 -5 -90 -11 -22 -6 -59 -15 -81 -21 -22 -6
-58 -17 -79 -26 -57 -24 -148 -22 -176 3 -23 20 -62 89 -55 96 2 2 -3 31 -12
64 -8 33 -18 76 -23 95 -13 53 -87 262 -104 295 -9 17 -16 33 -16 37 0 3 -13
35 -28 70 -16 34 -29 65 -30 68 -4 29 -60 155 -87 196 -19 29 -35 56 -35 61
-1 4 -14 24 -30 43 -17 19 -30 39 -30 46 0 19 -243 260 -285 282 -22 12 -76
48 -120 81 -128 95 -186 129 -235 135 -25 3 -52 2 -62 -2z"/>
<path d="M578 2149 c-10 -5 -18 -18 -18 -28 0 -21 40 -51 67 -51 10 0 29 -9
43 -20 14 -11 30 -20 36 -20 10 0 35 -23 154 -149 31 -32 110 -147 110 -159 0
-5 9 -17 20 -27 11 -10 20 -23 20 -30 0 -7 9 -20 20 -30 11 -10 20 -22 20 -28
0 -14 32 -80 48 -99 31 -36 76 -11 64 36 -3 12 -17 39 -31 61 -14 22 -31 51
-38 65 -48 93 -102 175 -149 224 -18 18 -35 43 -39 55 -3 11 -10 21 -14 21 -4
0 -39 31 -77 68 -38 37 -85 74 -104 82 -19 7 -44 20 -55 27 -23 15 -53 16 -77
2z"/>
<path d="M3198 1988 c-27 -29 -71 -87 -98 -128 -27 -41 -68 -101 -91 -133 -23
-32 -47 -73 -53 -90 -6 -18 -18 -43 -26 -57 -55 -97 -103 -214 -93 -224 3 -2
-5 -22 -17 -43 -16 -29 -20 -52 -18 -88 3 -46 5 -50 31 -53 30 -4 29 -6 47 88
6 36 18 72 26 81 8 8 14 22 14 31 0 28 33 112 62 154 15 23 28 46 28 52 0 5 7
15 15 22 9 7 23 29 32 49 9 20 29 52 45 72 15 20 28 40 28 44 0 10 83 122 138
186 46 54 48 59 30 77 -23 23 -50 12 -100 -40z"/>
<path d="M3721 1076 c-7 -8 -14 -49 -17 -93 -3 -43 -9 -94 -14 -113 -4 -19 -7
-51 -7 -70 2 -28 6 -36 25 -38 19 -3 27 6 47 51 20 43 26 74 29 153 2 58 0
104 -6 112 -14 16 -43 15 -57 -2z"/>
<path d="M2777 812 c-10 -10 -17 -23 -17 -29 0 -14 68 -68 97 -77 12 -4 62
-47 113 -97 70 -69 96 -89 111 -84 22 7 25 44 8 78 -21 41 -74 88 -136 124
-35 19 -63 38 -63 43 0 9 -72 60 -86 60 -6 0 -18 -8 -27 -18z"/>
<path d="M1012 664 c-18 -20 -32 -40 -32 -46 0 -5 -11 -24 -25 -42 -14 -18
-25 -37 -25 -43 0 -6 -12 -27 -27 -46 -75 -98 -87 -138 -51 -161 14 -8 23 -5
48 19 16 16 30 33 30 39 0 5 7 17 15 26 24 26 85 131 85 145 0 6 9 20 20 30
29 26 51 75 44 97 -9 30 -47 21 -82 -18z"/>
</g>
</svg>
